<svg xmlns="http://www.w3.org/2000/svg" viewBox="0 0 665.96 139.4"><defs><style>.cls-1,.cls-2{fill:#fff;}.cls-2,.cls-4{stroke:#231f20;stroke-width:1.53px;}.cls-3{fill:#003976;}.cls-4{fill:none;}</style></defs><g id="Layer_2" data-name="Layer 2"><g id="Layer_1-2" data-name="Layer 1"><path class="cls-1" d="M155.67,89.28V50.12H166a10.11,10.11,0,0,1,3.38.55A6.43,6.43,0,0,1,172,52.4a8.13,8.13,0,0,1,1.67,3.15,16.33,16.33,0,0,1,.59,4.75,15,15,0,0,1-.68,4.73,6.28,6.28,0,0,1-2.38,3.27v.1a5.89,5.89,0,0,1,4.34,3.22,15,15,0,0,1,1.34,6.75,13.73,13.73,0,0,1-.86,5.17,9.34,9.34,0,0,1-2.27,3.38,8.32,8.32,0,0,1-3.21,1.81,12.66,12.66,0,0,1-3.73.55Zm7.23-23.79h.81a8.39,8.39,0,0,0,1.41-.12,3.24,3.24,0,0,0,1.25-.53,2.86,2.86,0,0,0,.91-1.14,4.85,4.85,0,0,0,.35-2,4.76,4.76,0,0,0-.39-2.1,2.91,2.91,0,0,0-1-1.15A3.15,3.15,0,0,0,164.9,58c-.5-.05-1-.08-1.48-.08h-.52Zm0,16h.93c.54,0,1.14,0,1.8,0a6,6,0,0,0,1.89-.42A3.31,3.31,0,0,0,169,79.8a4.35,4.35,0,0,0,.59-2.47,4.86,4.86,0,0,0-.59-2.65,3.21,3.21,0,0,0-1.5-1.24,5.14,5.14,0,0,0-1.93-.37H162.9Z"/><polygon class="cls-1" points="187.87 58.74 187.87 65.29 196.03 65.29 196.03 73.91 187.87 73.91 187.87 80.66 196.47 80.66 196.47 89.28 180.65 89.28 180.65 50.12 196.47 50.12 196.47 58.74 187.87 58.74"/><polygon class="cls-1" points="208.16 80.66 216.82 80.66 216.82 89.28 200.93 89.28 200.93 50.12 208.16 50.12 208.16 80.66"/><polygon class="cls-1" points="226.42 80.66 235.09 80.66 235.09 89.28 219.19 89.28 219.19 50.12 226.42 50.12 226.42 80.66"/><path class="cls-1" d="M244.53,82.47l-1.92,6.81h-7.67l10.69-39.16h7.9L264,89.28h-7.71l-1.8-6.81Zm5.05-20.25h-.07l-3,12.46h6Z"/><polygon class="cls-1" points="269.31 50.12 276.43 50.12 282.07 71.05 288.05 50.12 295.24 50.12 299.45 89.28 292.22 89.28 290.19 66.74 290.12 66.74 283.44 89.28 280.56 89.28 274.18 66.74 274.11 66.74 271.79 89.28 264.59 89.28 269.31 50.12"/><path class="cls-1" d="M309.59,82.47l-1.92,6.81H300l10.7-39.16h7.89l10.48,39.16h-7.71l-1.81-6.81Zm5.05-20.25h-.07l-3,12.46h6Z"/><path class="cls-1" d="M354.44,89.28h-9l-6.82-15.06h-.08V89.28h-7.23V50.12h10.81a10.48,10.48,0,0,1,3.84.7A7.94,7.94,0,0,1,349,53a10.67,10.67,0,0,1,2,3.77,17.66,17.66,0,0,1,.74,5.4A18.67,18.67,0,0,1,351.4,66a13,13,0,0,1-1.16,3.32,8.8,8.8,0,0,1-1.92,2.5,6.12,6.12,0,0,1-2.62,1.37Zm-15.9-21.61h.7a10.69,10.69,0,0,0,1.78-.15,4,4,0,0,0,1.6-.67,3.93,3.93,0,0,0,1.18-1.48,7.44,7.44,0,0,0,0-5.15,3.86,3.86,0,0,0-1.18-1.48,4,4,0,0,0-1.6-.68,10.69,10.69,0,0,0-1.78-.15h-.7Z"/><polygon class="cls-1" points="376.28 58.74 376.28 65.29 384.43 65.29 384.43 73.91 376.28 73.91 376.28 80.66 384.87 80.66 384.87 89.28 369.05 89.28 369.05 50.12 384.87 50.12 384.87 58.74 376.28 58.74"/><path class="cls-1" d="M404.6,60.2a8,8,0,0,0-2.23-1.9,5.09,5.09,0,0,0-2.56-.7,2.85,2.85,0,0,0-1.05.21,3.2,3.2,0,0,0-1,.62,3.29,3.29,0,0,0-.75,1,3.17,3.17,0,0,0-.3,1.43,3,3,0,0,0,.33,1.48,4,4,0,0,0,.81,1,4.55,4.55,0,0,0,1,.73c.36.19.71.35,1,.49l1.84.78a15.53,15.53,0,0,1,2.69,1.48,8.87,8.87,0,0,1,2.18,2.1,9.81,9.81,0,0,1,1.46,3,14.32,14.32,0,0,1,.54,4.13,27.47,27.47,0,0,1-.61,5.73,11,11,0,0,1-2.27,4.81A9.84,9.84,0,0,1,402,89.46a10.84,10.84,0,0,1-4.17.85,11.93,11.93,0,0,1-5.14-1.16,16.43,16.43,0,0,1-4.63-3.3l3.1-8.2a17.2,17.2,0,0,0,2.95,2.85,5.6,5.6,0,0,0,3.46,1.2,3.52,3.52,0,0,0,1.26-.24,3.21,3.21,0,0,0,1.12-.7,3.68,3.68,0,0,0,.82-1.22,4.62,4.62,0,0,0,.31-1.79,3.32,3.32,0,0,0-.46-1.82,4.88,4.88,0,0,0-1.15-1.25,6.22,6.22,0,0,0-1.43-.82c-.51-.21-1-.4-1.35-.58a28.74,28.74,0,0,1-3.08-1.42,8.48,8.48,0,0,1-2.38-2,8.29,8.29,0,0,1-1.53-3,17.23,17.23,0,0,1-.54-4.68,19.07,19.07,0,0,1,.72-5.4,13.25,13.25,0,0,1,2-4.15,8.85,8.85,0,0,1,3-2.65,8,8,0,0,1,3.86-.94,10.93,10.93,0,0,1,2.19.24,14.2,14.2,0,0,1,2.29.65,15.57,15.57,0,0,1,2.21,1,14.24,14.24,0,0,1,2,1.32Z"/><polygon class="cls-1" points="423.12 89.28 415.89 89.28 415.89 58.74 409.92 58.74 409.92 50.12 429.1 50.12 429.1 58.74 423.12 58.74 423.12 89.28"/><path class="cls-1" d="M438.79,82.47l-1.91,6.81H429.2l10.7-39.16h7.89l10.48,39.16h-7.71l-1.81-6.81Zm5.06-20.25h-.07l-3,12.46h6Z"/><polygon class="cls-1" points="460.52 50.12 467.75 50.12 480.99 74.06 481.06 74.06 481.06 50.12 488.29 50.12 488.29 89.28 481.06 89.28 467.82 65.29 467.75 65.29 467.75 89.28 460.52 89.28 460.52 50.12"/><path class="cls-1" d="M512.9,63.26A8.31,8.31,0,0,0,510.11,60,6.41,6.41,0,0,0,506.55,59a5.74,5.74,0,0,0-3,.83,7.6,7.6,0,0,0-2.35,2.31,12,12,0,0,0-1.51,3.46,17.43,17.43,0,0,0,0,8.53,10.82,10.82,0,0,0,1.53,3.36,7.64,7.64,0,0,0,2.38,2.2,6,6,0,0,0,6.51-.31,9.38,9.38,0,0,0,2.81-3V88.5c-1.21.52-2.29,1-3.25,1.29a9.06,9.06,0,0,1-3.13.52,11.42,11.42,0,0,1-5.59-1.47,16,16,0,0,1-4.85-4.29,19.34,19.34,0,0,1-3.4-6.67,29.45,29.45,0,0,1-1.07-8.13A28,28,0,0,1,492.66,62a22.32,22.32,0,0,1,3-6.6,16.08,16.08,0,0,1,4.85-4.65,11,11,0,0,1,5.73-1.69,11.11,11.11,0,0,1,3.38.52,17,17,0,0,1,3.23,1.46Z"/><rect class="cls-1" x="517.36" y="50.12" width="7.23" height="39.16"/><path class="cls-1" d="M536.39,82.47l-1.92,6.81H526.8l10.69-39.16h7.9l10.47,39.16h-7.71l-1.8-6.81Zm5.05-20.25h-.07l-3,12.46h6Z"/><path class="cls-1" d="M573.38,60.2a8,8,0,0,0-2.23-1.9,5.09,5.09,0,0,0-2.56-.7,2.85,2.85,0,0,0-1.05.21,3.2,3.2,0,0,0-1,.62,3.46,3.46,0,0,0-.75,1,3.17,3.17,0,0,0-.3,1.43,3,3,0,0,0,.33,1.48,4,4,0,0,0,.81,1,4.55,4.55,0,0,0,1,.73c.37.19.71.35,1,.49l1.84.78a16,16,0,0,1,2.7,1.48,9,9,0,0,1,2.17,2.1,9.81,9.81,0,0,1,1.46,3,14,14,0,0,1,.53,4.13,27.46,27.46,0,0,1-.6,5.73,11,11,0,0,1-2.27,4.81,9.84,9.84,0,0,1-3.73,2.83,10.76,10.76,0,0,1-4.17.85,11.93,11.93,0,0,1-5.14-1.16,16.57,16.57,0,0,1-4.63-3.3l3.1-8.2a17.2,17.2,0,0,0,2.95,2.85,5.62,5.62,0,0,0,3.47,1.2,3.51,3.51,0,0,0,1.25-.24,3.21,3.21,0,0,0,1.12-.7,3.4,3.4,0,0,0,.82-1.22,4.62,4.62,0,0,0,.31-1.79,3.32,3.32,0,0,0-.46-1.82,5,5,0,0,0-1.14-1.25,6.5,6.5,0,0,0-1.44-.82c-.51-.21-1-.4-1.35-.58a28.74,28.74,0,0,1-3.08-1.42,7.85,7.85,0,0,1-3.91-5,16.89,16.89,0,0,1-.53-4.68,18.72,18.72,0,0,1,.72-5.4,12.81,12.81,0,0,1,2-4.15,8.94,8.94,0,0,1,3-2.65,8,8,0,0,1,3.86-.94,10.78,10.78,0,0,1,2.19.24A14.2,14.2,0,0,1,572,50a15.08,15.08,0,0,1,2.21,1,13.68,13.68,0,0,1,2,1.32Z"/><path class="cls-1" d="M608.76,60.2a8.27,8.27,0,0,0-2.23-1.9,5.15,5.15,0,0,0-2.57-.7,2.89,2.89,0,0,0-1.05.21,3.2,3.2,0,0,0-1,.62,3.46,3.46,0,0,0-.75,1,3.17,3.17,0,0,0-.3,1.43,3,3,0,0,0,.34,1.48,4,4,0,0,0,.81,1,4.5,4.5,0,0,0,1,.73c.37.19.71.35,1,.49l1.85.78a16.3,16.3,0,0,1,2.69,1.48,8.83,8.83,0,0,1,2.17,2.1,9.58,9.58,0,0,1,1.46,3,14,14,0,0,1,.54,4.13,26.81,26.81,0,0,1-.61,5.73,10.92,10.92,0,0,1-2.27,4.81,9.88,9.88,0,0,1-3.72,2.83,10.84,10.84,0,0,1-4.17.85,12,12,0,0,1-5.15-1.16,16.57,16.57,0,0,1-4.63-3.3l3.1-8.2a17.2,17.2,0,0,0,2.95,2.85,5.62,5.62,0,0,0,3.47,1.2,3.47,3.47,0,0,0,1.25-.24,3.34,3.34,0,0,0,1.13-.7,3.52,3.52,0,0,0,.81-1.22,4.62,4.62,0,0,0,.31-1.79,3.32,3.32,0,0,0-.46-1.82,4.85,4.85,0,0,0-1.14-1.25,6.5,6.5,0,0,0-1.44-.82l-1.35-.58a28.74,28.74,0,0,1-3.08-1.42,7.93,7.93,0,0,1-3.91-5,17.28,17.28,0,0,1-.53-4.68,19.07,19.07,0,0,1,.72-5.4,13,13,0,0,1,2-4.15,9,9,0,0,1,3-2.65,8,8,0,0,1,3.86-.94,10.78,10.78,0,0,1,2.19.24,14.2,14.2,0,0,1,2.29.65,15.08,15.08,0,0,1,2.21,1,13.68,13.68,0,0,1,2,1.32Z"/><path class="cls-1" d="M620.19,78.16a3.28,3.28,0,0,1,1.68.47,4.36,4.36,0,0,1,1.38,1.3,6.52,6.52,0,0,1,.92,1.95,8.6,8.6,0,0,1,0,4.72,6.12,6.12,0,0,1-.92,1.92,5,5,0,0,1-1.38,1.31,3.18,3.18,0,0,1-3.36,0,5,5,0,0,1-1.38-1.31,6.13,6.13,0,0,1-.93-1.92,8.6,8.6,0,0,1,0-4.72,6.53,6.53,0,0,1,.93-1.95,4.36,4.36,0,0,1,1.38-1.3,3.28,3.28,0,0,1,1.68-.47"/><path class="cls-1" d="M635.94,82.47,634,89.28h-7.67L637,50.12h7.9l10.47,39.16H647.7l-1.8-6.81Zm5-20.25h-.07l-3,12.46h6Z"/><path class="cls-1" d="M661.65,78.16a3.22,3.22,0,0,1,1.67.47,4.5,4.5,0,0,1,1.39,1.3,6.52,6.52,0,0,1,.92,1.95,8.6,8.6,0,0,1,0,4.72,6.12,6.12,0,0,1-.92,1.92,5.22,5.22,0,0,1-1.39,1.31,3.14,3.14,0,0,1-1.67.48,3.2,3.2,0,0,1-1.68-.48,5,5,0,0,1-1.38-1.31,5.92,5.92,0,0,1-.93-1.92,8.6,8.6,0,0,1,0-4.72,6.3,6.3,0,0,1,.93-1.95,4.36,4.36,0,0,1,1.38-1.3,3.28,3.28,0,0,1,1.68-.47"/><rect class="cls-2" x="0.77" y="0.77" width="139.39" height="137.87"/><path class="cls-3" d="M130.07,10.34h-120v119m68.55-68L67.09,51.55S56.38,42.09,55.78,41.49c-1.66-1.86-7.6-9.9,1.4-19.4,8.62-8.3,16.27-6,18.1-4.95,5.55,4,12.93,9.41,12.93,9.41l-6.52,7.79L73.9,28.72s-3.83-3.32-7.14.77c-3.62,4.44-.13,7.66-.13,7.66l8.93,7.14,11.3,8.81M40,99.54s-4.3-5.46-4.3-18.48,9.19-21.44,9.19-21.44l8.42,8s-5.74,6.9-6.13,12.65a25.28,25.28,0,0,0,1.63,10.43Z"/><path class="cls-3" d="M78.63,61.27s13.4,7.28,14,17.56C94.86,89,89.13,95.51,86.9,98.25A21.34,21.34,0,0,1,65.49,104s-9.37-.6-16.64-13.24L40,99.54c8.43,13.78,21.74,15,21.74,15,16.37,4.91,29.49-4.59,32.93-8.8S107,91.53,103.52,75.82,86.86,53.1,86.86,53.1Z"/><rect class="cls-3" x="57.95" y="74.81" width="24.51" height="9.7"/><polygon class="cls-1" points="57.86 74.71 57.86 81.75 64.96 74.71 57.86 74.71"/><rect class="cls-4" x="10.46" y="10.47" width="119.99" height="118.97"/></g></g></svg>